# xmcd
#
# Track frame offsets:
#	182
#	12715
#	29877
#	45142
#	57877
#	73335
#	88890
#	107805
#	122830
#	136120
#
# Disc length: 2009 seconds
#
# Revision: 12
# Processed by: cddbd v1.5.2PL0 Copyright (c) Steve Scherf et al.
# Submitted via: audiograbber 1.83.01
#
DISCID=9007d70a
DTITLE=Confederate Railroad - Confederate Railroad
DYEAR=1992
DGENRE=Country
TTITLE0=She Took It Like A Man
TTITLE1=Long Gone
TTITLE2=Jesus And Mama
TTITLE3=Time Off For Bad Behavior
TTITLE4=She Never Cried
TTITLE5=Black Label, White Lies
TTITLE6=When You Leave That Way You Can Never Go Back
TTITLE7=Queen Of Memphis
TTITLE8=You Don't Know What It's Like
TTITLE9=Trashy Women
EXTD=YEAR: 1992
EXTT0=
EXTT1=
EXTT2=
EXTT3=
EXTT4=
EXTT5=
EXTT6=
EXTT7=
EXTT8=
EXTT9=
PLAYORDER=
